Coordinates
version=1
nRows=8
nColumns=33
inDegrees=yes

Units are S.I. units (second, meters, Newtons, ...)
Angles are in degrees.

endheader
time	ground_thorax_rot_x	ground_thorax_rot_y	ground_thorax_rot_z	ground_thorax_tx	ground_thorax_ty	ground_thorax_tz	clav_prot_r	clav_elev_r	scapula_abduction_r	scapula_elevation_r	scapula_upward_rot_r	scapula_winging_r	shoulder_elv_r	plane_of_elev_r	axial_rot_r	elbow_flexion_r	pro_sup_r	wrist_flex_r	wrist_dev_r	clav_prot_l	clav_elev_l	scapula_abduction_l	scapula_elevation_l	scapula_upward_rot_l	scapula_winging_l	shoulder_elv_l	plane_of_elev_l	axial_rot_l	elbow_flexion_l	pro_sup_l	wrist_flex_l	wrist_dev_l
      4.32000000	    -39.94441935	    -11.11453785	     17.28474700	   -207.90079941	    816.22799141	     -2.34362230	      9.22445071	    -45.00000000	     39.33474699	    -45.00000000	    -44.01222501	   3501.06299783	  -1366.14372412	     33.27045983	     64.33371891	   1824.75097220	    174.15529842	     11.66383460	      5.79827322	     15.84611769	     38.17332871	    -39.01730076	    -45.00000000	    -45.00000000	  -2795.77230201	    791.75437568	     26.79924379	     -2.36777391	   1448.14217815	     26.45369261	      6.62129540	    -22.64363854
      4.33000000	    -39.94932954	    -10.82811496	     17.07184021	   -205.88919675	    816.34048793	     -2.40980537	      9.27522600	    -45.00000000	     39.69294667	    -45.00000000	    -43.35620614	   3501.18193149	  -1366.19189599	     33.32944304	     64.07863143	   1824.67906486	    176.23651193	     11.54713100	      5.78605629	     16.17614344	     38.36049193	    -39.21928024	    -45.00000000	    -45.00000000	  -2795.66422489	    791.68793205	     27.15121435	     -2.42370792	   1448.08429220	     25.70390908	      6.82837194	    -22.59996587
      4.34000000	    -39.87783845	    -10.74273372	     17.09654142	   -203.73287629	    816.39257544	     -2.45145990	      9.29185454	    -45.00000000	     39.91550891	    -45.00000000	    -42.53220288	   3501.35292324	  -1366.21060025	     33.19237444	     64.18851523	   1824.55727535	    178.38422497	     11.42100568	      5.73186598	     16.32352667	     38.45859773	    -39.34259480	    -45.00000000	    -45.00000000	  -2795.72112537	    791.67567544	     27.27828903	     -2.29016137	   1448.17446354	     24.80119451	      7.00772261	    -22.53545446
      4.35000000	    -39.82182397	    -10.64114559	     17.15124847	   -201.43467822	    816.38129294	     -2.46892636	      9.33392351	    -45.00000000	     40.06448411	    -45.00000000	    -41.99219987	   3501.40985534	  -1366.26025785	     33.31200709	     64.38798220	   1824.38846703	    180.26230368	     11.30032198	      5.70465677	     16.17951566	     38.35698652	    -39.50357449	    -45.00000000	    -45.00000000	  -2795.83829000	    791.77159282	     27.32171846	     -2.18799850	   1448.23269885	     23.96347894	      7.22398780	    -22.46462285
      4.36000000	    -39.74315197	    -10.49784103	     17.13572697	   -198.98644986	    816.29663784	     -2.47222309	      9.24105801	    -45.00000000	     40.32475786	    -45.00000000	    -40.86315682	   3501.63362012	  -1366.34959694	     33.01474365	     64.51552053	   1824.25229476	    182.52363255	     11.15202974	      5.58453876	     16.60217076	     38.55684044	    -39.73965682	    -45.00000000	    -45.00000000	  -2795.87083455	    791.63427521	     27.44188045	     -2.01893572	   1448.38047336	     22.89503583	      7.38247755	    -22.36829163
      4.37000000	    -39.68074273	    -10.41067215	     17.16776493	   -196.39313576	    816.14242211	     -2.45908118	      9.27674066	    -45.00000000	     40.55477120	    -45.00000000	    -40.29493620	   3501.76255573	  -1366.34913811	     33.06782654	     64.61556715	   1824.01548946	    184.37901568	     11.02353349	      5.53599171	     16.38417049	     38.57190618	    -39.85302224	    -45.00000000	    -44.85434930	  -2795.97073329	    791.76072465	     27.48983810	     -2.03580719	   1448.47785872	     22.00986706	      7.67399502	    -22.30457416
      4.38000000	    -39.66852805	    -10.24313625	     17.14060132	   -193.66940674	    815.91992901	     -2.42801117	      9.25580048	    -45.00000000	     40.74949846	    -45.00000000	    -39.28848317	   3501.93377415	  -1366.49520675	     32.88496846	     64.65668770	   1823.86364390	    186.23076701	     10.86198925	      5.37832796	     16.52717778	     38.72061146	    -40.01750130	    -45.00000000	    -44.36849614	  -2796.04645528	    791.68260445	     27.49545057	     -1.95637543	   1448.59281040	     21.07223113	      7.87468851	    -22.19970441
      4.39000000	    -39.65263389	    -10.07080598	     17.04175781	   -190.84339655	    815.64172241	     -2.36823060	      9.23308995	    -45.00000000	     41.00642419	    -45.00000000	    -38.43475446	   3502.13081097	  -1366.60793818	     32.80245134	     64.74475495	   1823.67544701	    187.94019367	     10.70910366	      5.24866111	     16.56923880	     38.85281887	    -40.18057397	    -45.00000000	    -43.86680661	  -2796.17810626	    791.58199316	     27.49255253	     -1.90857256	   1448.65202691	     20.21536511	      8.11100678	    -22.08830799
